<svg xmlns="http://www.w3.org/2000/svg" viewBox="0 0 61.75 61.75"><defs><style>.a{fill:#fff9f7;}.b{fill:#1ed760;}</style></defs><circle class="a" cx="30.85" cy="30.88" r="24.02"/><path class="b" d="M38,7.12A30.88,30.88,0,1,0,68.88,38,30.88,30.88,0,0,0,38,7.12Zm8.49,43a2.37,2.37,0,0,1-3.18,1A11.94,11.94,0,0,0,38,49.87a11.72,11.72,0,0,0-5.35,1.28,2.37,2.37,0,1,1-2.13-4.24h0a16.63,16.63,0,0,1,14.93,0A2.4,2.4,0,0,1,46.49,50.08Zm4.4-8.4a2.36,2.36,0,0,1-3.16,1l0,0a21.38,21.38,0,0,0-19.42,0,2.34,2.34,0,0,1-3.17-1l0-.08a2.38,2.38,0,0,1,1-3.2h0a26.08,26.08,0,0,1,23.71,0,2.39,2.39,0,0,1,1,3.2Zm4.39-8.43a2.34,2.34,0,0,1-3.15,1h0A31,31,0,0,0,38,30.87a30.6,30.6,0,0,0-14.13,3.42,2.35,2.35,0,0,1-3.45-2.1,2.38,2.38,0,0,1,1.28-2.12,35.71,35.71,0,0,1,32.57,0,2.37,2.37,0,0,1,1,3.2Z" transform="translate(-7.13 -7.12)"/></svg>